<svg width="28" height="28" viewBox="0 0 28 28" fill="none" xmlns="http://www.w3.org/2000/svg">
<circle cx="14" cy="14" r="14" fill="#C4C4C4"/>
<path d="M8.17677 7.82323C8.65918 7.34082 9.44133 7.34082 9.92374 7.82323L19.8232 17.7227C20.3056 18.2051 20.3056 18.9873 19.8232 19.4697C19.3408 19.9521 18.5587 19.9521 18.0763 19.4697L8.17677 9.5702C7.69436 9.08779 7.69436 8.30564 8.17677 7.82323Z" fill="white"/>
<path d="M19.8232 7.82323C20.3056 8.30564 20.3056 9.08779 19.8232 9.5702L9.92374 19.4697C9.44132 19.9521 8.65918 19.9521 8.17677 19.4697C7.69435 18.9873 7.69435 18.2051 8.17677 17.7227L18.0763 7.82323C18.5587 7.34082 19.3408 7.34082 19.8232 7.82323Z" fill="white"/>
</svg>
