<svg width="15" height="18" viewBox="0 0 15 18" fill="none" xmlns="http://www.w3.org/2000/svg">
<path d="M6.86719 8.29688C7.11719 8.29688 7.32812 8.21875 7.47656 8.05469L10.6797 4.82031C10.875 4.63281 10.9609 4.41406 10.9609 4.16406C10.9609 3.92969 10.8672 3.69531 10.6797 3.51562L7.48438 0.257812C7.32031 0.0859375 7.11719 0 6.86719 0C6.38281 0 6.00781 0.398438 6.00781 0.890625C6.00781 1.13281 6.09375 1.32031 6.25 1.48438L7.94531 3.14844C7.63281 3.10938 7.3125 3.08594 7 3.08594C3.10938 3.08594 0 6.19531 0 10.1094C0 14.0156 3.14844 17.1641 7.04688 17.1641C10.9531 17.1641 14.0938 14.0156 14.0938 10.1094C14.0938 9.5625 13.7188 9.1875 13.1875 9.1875C12.6719 9.1875 12.3125 9.5625 12.3125 10.1094C12.3125 13.0234 9.96875 15.375 7.04688 15.375C4.13281 15.375 1.78906 13.0234 1.78906 10.1094C1.78906 7.14844 4.09375 4.8125 7 4.8125C7.44531 4.8125 7.85156 4.84375 8.21094 4.89844L6.25 6.83594C6.09375 7 6.00781 7.1875 6.00781 7.42188C6.00781 7.91406 6.38281 8.29688 6.86719 8.29688Z" fill="#4A4A4A"/>
</svg>
