<svg width="18" height="23" viewBox="0 0 18 23" fill="none" xmlns="http://www.w3.org/2000/svg">
<path d="M8.86963 14.5503C9.41309 14.5503 9.84375 14.1196 9.84375 13.5967V3.92725L9.76172 2.4917L10.3359 3.21973L11.6382 4.604C11.8022 4.78857 12.0381 4.89111 12.2739 4.89111C12.7456 4.89111 13.1353 4.55273 13.1353 4.06055C13.1353 3.81445 13.043 3.62988 12.8687 3.45557L9.61816 0.328125C9.37207 0.0820312 9.12598 0 8.86963 0C8.61328 0 8.37744 0.0820312 8.12109 0.328125L4.88086 3.45557C4.70654 3.62988 4.604 3.81445 4.604 4.06055C4.604 4.55273 4.99365 4.89111 5.45508 4.89111C5.70117 4.89111 5.93701 4.78857 6.11133 4.604L7.40332 3.21973L7.98779 2.4917L7.90576 3.92725V13.5967C7.90576 14.1196 8.33643 14.5503 8.86963 14.5503ZM3.26074 22.3638H14.4478C16.5908 22.3638 17.7085 21.2461 17.7085 19.1338V9.65918C17.7085 7.54688 16.5908 6.4292 14.4478 6.4292H11.874V8.53125H14.2837C15.1348 8.53125 15.6167 8.97217 15.6167 9.87451V18.9185C15.6167 19.8208 15.1348 20.2617 14.2837 20.2617H3.43506C2.57373 20.2617 2.10205 19.8208 2.10205 18.9185V9.87451C2.10205 8.97217 2.57373 8.53125 3.43506 8.53125H5.87549V6.4292H3.26074C1.13818 6.4292 0 7.54688 0 9.65918V19.1338C0 21.2461 1.13818 22.3638 3.26074 22.3638Z" fill="#2B2B2B"/>
</svg>
