<svg width="20" height="22" viewBox="0 0 20 22" fill="none" xmlns="http://www.w3.org/2000/svg">
<path d="M16.7241 19.5337L17.3701 5.62939H18.3955C18.9185 5.62939 19.3286 5.22949 19.3286 4.70654C19.3286 4.18359 18.9185 3.78369 18.3955 3.78369H14.1401V2.53271C14.1401 0.994629 13.0737 0 11.3511 0H7.95703C6.23438 0 5.16797 0.994629 5.16797 2.53271V3.78369H0.933105C0.410156 3.78369 0 4.18359 0 4.70654C0 5.22949 0.410156 5.62939 0.933105 5.62939H1.9585L2.60449 19.5439C2.67627 21.0923 3.65039 21.9844 5.19873 21.9844H14.1299C15.668 21.9844 16.6523 21.082 16.7241 19.5337ZM7.11621 2.61475C7.11621 2.0918 7.50586 1.72266 8.08008 1.72266H11.2383C11.8125 1.72266 12.2021 2.0918 12.2021 2.61475L12.2124 3.78369H7.10596L7.11621 2.61475ZM5.43457 20.1284C4.90137 20.1284 4.53223 19.749 4.50146 19.1748L3.85547 5.62939H15.4424L14.8271 19.1748C14.7964 19.749 14.4375 20.1284 13.894 20.1284H5.43457ZM12.52 18.5801C12.8892 18.5801 13.1763 18.2725 13.1865 17.8315L13.4736 7.99805C13.4941 7.57764 13.1968 7.23926 12.8174 7.23926C12.4482 7.23926 12.1509 7.57764 12.1406 7.98779L11.8433 17.8213C11.833 18.2417 12.1304 18.5801 12.52 18.5801ZM6.80859 18.5801C7.19824 18.5801 7.49561 18.2417 7.48535 17.8213L7.18799 7.98779C7.17773 7.57764 6.87012 7.23926 6.51123 7.23926C6.12158 7.23926 5.83447 7.56738 5.84473 7.99805L6.14209 17.8315C6.15234 18.2725 6.4292 18.5801 6.80859 18.5801ZM9.65918 18.5801C10.0386 18.5801 10.3462 18.2417 10.3462 17.8418V7.98779C10.3462 7.57764 10.0386 7.23926 9.65918 7.23926C9.29004 7.23926 8.98242 7.57764 8.98242 7.98779V17.8418C8.98242 18.2417 9.29004 18.5801 9.65918 18.5801Z" fill="#FF3B30"/>
</svg>
